<svg xmlns="http://www.w3.org/2000/svg" xmlns:xlink="http://www.w3.org/1999/xlink" viewBox="-10 30 60 80"><path fill="#492ced" d="M39.60 43.45L37.70 52.55L37.25 52.55Q36.25 51.30 33.60 49.68Q30.95 48.05 27.35 48.05L27.35 48.05Q24.95 48.05 22.98 48.75Q21 49.45 19.80 50.85Q18.60 52.25 18.55 54.45L18.55 54.45Q18.50 56.65 19.55 58.53Q20.60 60.40 22.60 62.15Q24.60 63.90 27.25 65.85L27.25 65.85Q29.90 67.75 32.30 69.95Q34.70 72.15 36.20 75.08Q37.70 78 37.70 82.10L37.70 82.10Q37.70 86.40 35.90 89.65Q34.10 92.90 31 95.05Q27.90 97.20 23.93 98.30Q19.95 99.40 15.55 99.40L15.55 99.40Q12.70 99.40 9.50 98.85Q6.30 98.30 3.78 97.50Q1.25 96.70 0.30 95.85L0.30 95.85L2.40 87.20L2.55 87.20Q3.60 88.20 5.73 89.45Q7.85 90.70 10.43 91.63Q13 92.55 15.45 92.55L15.45 92.55Q17.55 92.55 19.58 91.88Q21.60 91.20 22.95 89.68Q24.30 88.15 24.30 85.60L24.30 85.60Q24.30 83.35 23.08 81.48Q21.85 79.60 19.80 77.85Q17.75 76.10 15.20 74.35L15.20 74.35Q13 72.85 10.73 70.63Q8.45 68.40 6.88 65.28Q5.30 62.15 5.30 57.95L5.30 57.95Q5.30 53.05 8.08 49.38Q10.85 45.70 15.75 43.65Q20.65 41.60 26.95 41.60L26.95 41.60Q29.60 41.60 32.20 41.90Q34.80 42.20 36.77 42.65Q38.75 43.10 39.60 43.45L39.60 43.45Z"/></svg>